<?xml version="1.0" encoding="utf-8"?>
<!-- Generator: Adobe Illustrator 23.0.1, SVG Export Plug-In . SVG Version: 6.00 Build 0)  -->
<svg version="1.1" id="Layer_1" xmlns="http://www.w3.org/2000/svg" xmlns:xlink="http://www.w3.org/1999/xlink" x="0px" y="0px"
	 viewBox="0 0 700 900" style="enable-background:new 0 0 700 900;" xml:space="preserve">
<style type="text/css">
	.st0{fill:none;stroke:#656565;}
</style>
<path vector-effect="non-scaling-stroke" class="st0" d="M653.56,181.96H317.2v-39.69h15.11V99.75H317.2V60.07h336.36v39.69h-15.11
	v42.52h15.11V181.96z"/>
<g>
	<path vector-effect="non-scaling-stroke" class="st0" d="M317.2,201.15h336.36v245.91H317.2V201.15z"/>
	<path vector-effect="non-scaling-stroke" class="st0" d="M338.46,324.1c0,3.91,3.17,7.09,7.09,7.09c3.91,0,7.09-3.17,7.09-7.09
		c0-3.91-3.17-7.09-7.09-7.09C341.64,317.02,338.46,320.19,338.46,324.1z"/>
	<path vector-effect="non-scaling-stroke" class="st0" d="M618.13,324.1c0,3.91,3.17,7.09,7.09,7.09s7.09-3.17,7.09-7.09
		c0-3.91-3.17-7.09-7.09-7.09S618.13,320.19,618.13,324.1z"/>
</g>
<path vector-effect="non-scaling-stroke" class="st0" d="M653.56,733.05h-15.11v42.52h15.11v48.19H317.2v-48.19h15.11v-42.52H317.2
	v-48.19h15.11v-42.52H317.2v-48.19h52.2v-15.11h42.52v15.11h52.2v-15.11h42.52v15.11h52.2v-15.11h42.52v15.11h52.2v48.19h-15.11
	v42.52h15.11V733.05z"/>
<g>
	<path vector-effect="non-scaling-stroke" class="st0" d="M653.56,566.4h-52.2v-15.11h-42.52v15.11h-52.2v-15.11h-42.52v15.11h-52.2
		v-15.11H369.4v15.11h-52.2v-15.11v-21.26h15.11v-42.52H317.2v-21.26h336.36v21.26h-15.11v42.52h15.11v21.26V566.4z"/>
	<path vector-effect="non-scaling-stroke" class="st0" d="M373.42,508.77c0,5.48,4.43,9.92,9.91,9.93s9.92-4.43,9.93-9.91
		c0,0,0-0.01,0-0.01c0-5.48-4.43-9.92-9.91-9.93c-5.48,0-9.92,4.43-9.93,9.91C373.42,508.76,373.42,508.76,373.42,508.77z"/>
</g>
<path vector-effect="non-scaling-stroke" class="st0" d="M276.04,744.87h15.11v42.52h-15.11v21.26h-48.19v15.11h-42.52v-15.11
	h-48.19v15.11H94.63v-15.11H46.44V502.51h39.69V487.4h42.52v15.11h39.69l107.72,221.1V744.87z"/>
<path vector-effect="non-scaling-stroke" class="st0" d="M65.63,296.28l107.72-221.1h39.69V60.07h42.52v15.11h39.69v306.14h-48.19
	v15.11h-42.52v-15.11h-48.19v15.11h-42.52v-15.11H65.63v-21.26H50.52v-42.52h15.11V296.28z"/>
</svg>
